<?xml version="1.0" encoding="UTF-8"?>
<svg version="1.1" xmlns="http://www.w3.org/2000/svg" width="322" height="322">
<path d="M0 0 C0.7974826 -0.00453111 1.5949652 -0.00906223 2.41661394 -0.01373065 C5.06233894 -0.02629005 7.70785585 -0.02475978 10.35360718 -0.02310181 C12.26160951 -0.02909246 14.16960943 -0.03589923 16.0776062 -0.04345703 C21.24321798 -0.06107223 26.40876342 -0.0658106 31.57440233 -0.0670886 C34.80801482 -0.0685136 38.04161063 -0.07278987 41.27521896 -0.07808304 C52.57447117 -0.09657038 63.87367629 -0.10475551 75.17294312 -0.10317993 C85.67535881 -0.10197975 96.1775686 -0.12306127 106.67993224 -0.15466726 C115.72062279 -0.18089666 124.76124638 -0.1915444 133.80197465 -0.19026911 C139.19087813 -0.18976132 144.5795986 -0.19534243 149.9684639 -0.21662521 C155.0427802 -0.23611949 160.11674105 -0.23605615 165.19107056 -0.22159195 C167.04244893 -0.21951638 168.89385022 -0.22412909 170.74518967 -0.23631287 C192.08044676 -0.36750936 210.33840389 4.62074943 226.57772827 19.26742554 C227.26222046 19.85910522 227.94671265 20.45078491 228.65194702 21.06039429 C240.70222806 32.16369843 249.30000791 49.00070211 250.76547313 65.36374021 C250.837761 67.47466934 250.85416222 69.577561 250.84515381 71.68969727 C250.84968492 72.48717986 250.85421603 73.28466246 250.85888445 74.1063112 C250.87144386 76.75203621 250.86991359 79.39755312 250.86825562 82.04330444 C250.87424626 83.95130678 250.88105304 85.8593067 250.88861084 87.76730347 C250.90622604 92.93291524 250.9109644 98.09846069 250.91224241 103.2640996 C250.91366741 106.49771209 250.91794368 109.7313079 250.92323685 112.96491623 C250.94172419 124.26416843 250.94990932 135.56337355 250.94833374 146.86264038 C250.94713356 157.36505608 250.96821508 167.86726587 250.99982107 178.3696295 C251.02605047 187.41032006 251.03669821 196.45094365 251.03542292 205.49167192 C251.03491513 210.8805754 251.04049624 216.26929587 251.06177902 221.65816116 C251.0812733 226.73247747 251.08120996 231.80643831 251.06674576 236.88076782 C251.06467019 238.7321462 251.0692829 240.58354748 251.08146667 242.43488693 C251.21266317 263.77014402 246.22440437 282.02810116 231.57772827 298.26742554 C230.98604858 298.95191772 230.3943689 299.63640991 229.78475952 300.34164429 C218.68145538 312.39192533 201.84445169 320.98970518 185.4814136 322.45517039 C183.37048447 322.52745827 181.26759281 322.54385949 179.15545654 322.53485107 C177.95923264 322.54164774 177.95923264 322.54164774 176.73884261 322.54858172 C174.0931176 322.56114113 171.44760069 322.55961086 168.80184937 322.55795288 C166.89384703 322.56394353 164.98584711 322.57075031 163.07785034 322.57830811 C157.91223857 322.5959233 152.74669312 322.60066167 147.58105421 322.60193968 C144.34744172 322.60336468 141.11384591 322.60764094 137.88023758 322.61293411 C126.58098538 322.63142145 115.28178025 322.63960658 103.98251343 322.63803101 C93.48009773 322.63683083 82.97788794 322.65791235 72.47552431 322.68951833 C63.43483375 322.71574774 54.39421016 322.72639547 45.35348189 322.72512019 C39.96457841 322.7246124 34.57585794 322.7301935 29.18699265 322.75147629 C24.11267634 322.77097057 19.0387155 322.77090722 13.96438599 322.75644302 C12.11300761 322.75436745 10.26160633 322.75898016 8.41026688 322.77116394 C-12.92499022 322.90236044 -31.18294735 317.91410164 -47.42227173 303.26742554 C-48.10676392 302.67574585 -48.7912561 302.08406616 -49.49649048 301.47445679 C-61.54677152 290.37115265 -70.14455137 273.53414896 -71.61001658 257.17111087 C-71.68230446 255.06018173 -71.69870568 252.95729008 -71.68969727 250.84515381 C-71.69422838 250.04767121 -71.69875949 249.25018861 -71.70342791 248.42853987 C-71.71598732 245.78281487 -71.71445705 243.13729796 -71.71279907 240.49154663 C-71.71878972 238.5835443 -71.7255965 236.67554438 -71.7331543 234.76754761 C-71.75076949 229.60193583 -71.75550786 224.43639039 -71.75678587 219.27075148 C-71.75821087 216.03713899 -71.76248713 212.80354318 -71.7677803 209.56993484 C-71.78626764 198.27068264 -71.79445277 186.97147752 -71.7928772 175.67221069 C-71.79167702 165.16979499 -71.81275854 154.66758521 -71.84436452 144.16522157 C-71.87059393 135.12453102 -71.88124166 126.08390743 -71.87996638 117.04317915 C-71.87945859 111.65427567 -71.8850397 106.26555521 -71.90632248 100.87668991 C-71.92581676 95.80237361 -71.92575341 90.72841276 -71.91128922 85.65408325 C-71.90921365 83.80270488 -71.91382635 81.95130359 -71.92601013 80.09996414 C-72.05720663 58.76470705 -67.06894783 40.50674992 -52.42227173 24.26742554 C-51.83059204 23.58293335 -51.23891235 22.89844116 -50.62930298 22.19320679 C-37.87952541 8.35602815 -18.76544048 -0.08003596 0 0 Z " fill="#2563EB" transform="translate(71.42227172851563,-0.267425537109375)"/>
<path d="M0 0 C14.93986557 12.62119844 21.91517174 29.05662282 24.6875 48.125 C25.76396556 62.17144663 25.31867801 75.76291263 20.6875 89.125 C20.32527344 90.1975 19.96304688 91.27 19.58984375 92.375 C13.24761633 109.23027559 0.961758 120.46093093 -14.3125 129.125 C-9.1256731 136.53475272 -2.99455567 142.93716917 3.18115234 149.51416016 C5.12442949 151.59223837 7.04267968 153.69014432 8.9375 155.8125 C9.71867187 156.68455078 9.71867187 156.68455078 10.515625 157.57421875 C11.6875 159.125 11.6875 159.125 12.6875 162.125 C-19.99661459 164.72638871 -19.99661459 164.72638871 -27.5078125 159.06640625 C-30.56827209 156.03396002 -32.97014045 152.64790509 -35.1796875 148.95849609 C-36.69466699 146.50644955 -38.57149819 144.51146022 -40.5625 142.4375 C-42.61806871 140.13293199 -44.01606646 137.93190091 -45.3125 135.125 C-46.31667969 135.14820313 -47.32085937 135.17140625 -48.35546875 135.1953125 C-69.56600232 135.54225641 -89.13250791 131.00509589 -105.0625 116.0625 C-119.40491928 100.97501998 -124.72021883 81.86124875 -124.625 61.4375 C-124.61762817 59.57738281 -124.61762817 59.57738281 -124.61010742 57.6796875 C-124.3509564 37.41540627 -118.95677934 19.51095318 -104.859375 4.515625 C-77.66114254 -20.9720268 -29.5259196 -22.51902226 0 0 Z " fill="#FDFDFE" transform="translate(146.3125,90.875)"/>
<path d="M0 0 C33.33 0 66.66 0 101 0 C101 9.24 101 18.48 101 28 C80.21 28 59.42 28 38 28 C38 36.91 38 45.82 38 55 C57.47 55 76.94 55 97 55 C97 64.24 97 73.48 97 83 C77.53 83 58.06 83 38 83 C38 103.46 38 123.92 38 145 C25.46 145 12.92 145 0 145 C0 97.15 0 49.3 0 0 Z " fill="#FDFDFE" transform="translate(199,79)"/>
<path d="M0 0 C8.93937916 7.28006296 13.94806839 17.58876125 15.30297852 28.93823242 C16.92863708 46.6476491 16.9410855 65.67573198 5.5234375 80.33984375 C-0.16399081 86.78186943 -7.25876958 90.13646084 -15.8046875 90.72265625 C-26.61106852 91.13815636 -34.15381113 90.00182225 -42.7265625 83.08984375 C-51.83699252 74.52170123 -55.5393655 63.11278021 -56.0078125 50.74609375 C-56.01828089 48.11067729 -56.00765694 45.47509756 -55.9765625 42.83984375 C-55.99203125 41.52886719 -56.0075 40.21789062 -56.0234375 38.8671875 C-55.96989851 25.388748 -53.06614427 13.25403085 -43.55859375 3.33984375 C-31.55787337 -7.8020243 -13.69699685 -9.18174079 0 0 Z " fill="#2663EB" transform="translate(116.4765625,108.66015625)"/>
</svg>
